<svg id="Capa_1" enable-background="new 0 0 512 512" height="512" viewBox="0 0 512 512" width="512" xmlns="http://www.w3.org/2000/svg"><g><path d="m512 256c0 75.597-32.767 143.54-84.874 190.402-3.046 2.74-9.728-9.259-12.904-6.666-17.722 14.469-37.419 26.611-58.625 35.96-5.396 2.379-7.32 19.243-12.904 21.253-20.726 7.458-42.691 12.318-65.503 14.187-.716.059-1.581-1.144-2.299-1.091-3.217.236-6.45.414-9.699.53-1.048.038-1.951 1.327-3.002 1.352-2.057.049-4.12.073-6.189.073-30.368 0-59.501-5.288-86.529-14.993-6.64-2.384-7.034-19.144-13.407-22.048-19.12-8.714-36.98-19.712-53.231-32.645-3.911-3.113-13.849 7.771-17.569 4.439-52.334-46.874-85.265-114.968-85.265-190.753 0-141.385 114.615-256 256-256s256 114.615 256 256z" fill="#fdbcbc"/><path d="m382.426 329.013-105.237 105.236v76.886c-4.961.406-9.963.671-15 .791v-75.768l-135.717-73.078c-2.429-1.308-3.944-3.844-3.944-6.604v-86.483c0-4.142 3.358-7.5 7.5-7.5s7.5 3.358 7.5 7.5v82.003l130.455 70.245 33.987-33.987v-68.819c0-4.142 3.357-7.5 7.5-7.5s7.5 3.358 7.5 7.5v53.819l54.849-54.848c2.931-2.929 7.679-2.929 10.607 0s2.928 7.678 0 10.607z" fill="#69564e"/><path d="m69.51 296c-24.452 0-42.508-23.104-36.266-46.746 22.731-86.09 101.14-149.562 194.373-149.562s171.642 63.472 194.373 149.562c6.242 23.642-11.814 46.746-36.266 46.746z" fill="#ff50b5"/><path d="m220.872 346.936c-20.125 0-34.986-19.015-29.848-38.474 18.708-70.855 83.241-123.095 159.976-123.095s141.268 52.24 159.976 123.095c5.138 19.458-9.723 38.474-29.848 38.474z" fill="#ff72c3"/><path d="m427.126 446.402c-24.372 21.919-52.974 39.225-84.433 50.546l19.307-376.948h50zm-325.126-326.402-16.736 326.752c24.329 21.791 52.851 38.996 84.207 50.255l-17.471-377.007z" fill="#c83c50"/><path d="m386.462 378.023c-20.49 0-36.799-17.166-35.751-37.629l11.289-220.394h50l10.222 220.568c.945 20.4-15.339 37.455-35.76 37.455zm-234.462-258.023h-50l-11.289 220.394c-1.048 20.463 15.261 37.629 35.751 37.629 20.421 0 36.704-17.056 35.759-37.455z" fill="#f44545"/><path d="m142.755 86.09v58.738c0 2.761-2.239 5-5 5h-62.755c-2.761 0-5-2.239-5-5v-58.738c0-2.761 2.239-5 5-5h62.755c2.762 0 5 2.238 5 5zm-5.228 163.796v-18.828c0-5.523-4.477-10-10-10h-47.527c-5.523 0-10 4.477-10 10v18.828c0 5.523 4.477 10 10 10h47.527c5.523 0 10-4.477 10-10z" fill="#962a3a"/><path d="m442 86.09v58.738c0 2.761-2.239 5-5 5h-304.633c-2.761 0-5-2.239-5-5v-58.738c0-2.761 2.239-5 5-5h304.633c2.761 0 5 2.238 5 5zm0 163.796v-18.828c0-5.523-4.477-10-10-10h-319.809c-5.523 0-10 4.477-10 10v18.828c0 5.523 4.477 10 10 10h319.809c5.523 0 10-4.477 10-10z" fill="#b03244"/><path d="m288 143v85.653h-64v-85.653z" fill="#842939"/><path d="m269.383 200.826c0 4.142-3.358 7.5-7.5 7.5h-11.766c-4.142 0-7.5-3.358-7.5-7.5s3.358-7.5 7.5-7.5h11.766c4.142 0 7.5 3.358 7.5 7.5zm-19.266-22.5h11.766c4.142 0 7.5-3.358 7.5-7.5s-3.358-7.5-7.5-7.5h-11.766c-4.142 0-7.5 3.358-7.5 7.5s3.358 7.5 7.5 7.5z" fill="#b03244"/><path d="m288 135.5h-64c-4.142 0-7.5 3.358-7.5 7.5v85.652c0 4.142 3.358 7.5 7.5 7.5h64c4.143 0 7.5-3.358 7.5-7.5v-85.652c0-4.142-3.357-7.5-7.5-7.5zm-7.5 85.652h-49v-70.652h49z" fill="#962a3a"/><path d="m501.855 79.082-55.395 24.493c-.637.282-1.326.427-2.022.427h-382.542c-.754 0-1.499-.171-2.178-.5l-50.177-24.287c-3.804-1.841-3.75-7.279.091-9.044l34.974-16.069c1.357-.624 2.922-.608 4.266.043l10.845 5.25c.679.329 1.424.5 2.178.5h382.542c.696 0 1.385-.145 2.022-.427l14.557-6.436c1.311-.58 2.807-.569 4.109.03l36.795 16.906c3.915 1.796 3.875 7.372-.065 9.114z" fill="#fb5858"/><path d="m495.642 41.711-9.379 5.578c-20.227 12.03-43.624 18.389-67.664 18.389h-325.704c-25.413 0-49.919-7.04-70.869-20.36l-5.856-3.723c-3.496-2.222-4.528-6.857-2.306-10.353s6.858-4.527 10.353-2.306l5.857 3.724c18.541 11.788 40.264 18.018 62.821 18.018h325.704c21.342 0 42.088-5.63 59.996-16.281l9.379-5.578c3.561-2.117 8.163-.948 10.28 2.612s.947 8.163-2.612 10.28z" fill="#842939"/><path d="m328.904 103.665c0 5.523-4.477 10-10 10h-125.808c-5.523 0-10-4.477-10-10s4.477-10 10-10h125.809c5.522 0 9.999 4.478 9.999 10z" fill="#fc7979"/><path d="m220.553 378.023c0 8.284-6.716 15-15 15h-49.983c-8.284 0-15-6.716-15-15s6.716-15 15-15h49.983c8.284 0 15 6.716 15 15z" fill="#ff50b5"/><path d="m248.808 378.023c0 8.284-6.716 15-15 15h-49.983c-8.284 0-15-6.716-15-15s6.716-15 15-15h49.983c8.284 0 15 6.716 15 15z" fill="#ff72c3"/><path d="m333.072 33.459c2.929 2.929 2.929 7.677 0 10.607l-10.607 10.606c-2.929 2.929-7.678 2.929-10.607 0-2.929-2.929-2.929-7.678 0-10.606l10.607-10.607c2.93-2.929 7.678-2.929 10.607 0zm11.049 298.021c-2.929-2.929-7.677-2.929-10.606 0s-2.929 7.678 0 10.606l10.606 10.607c2.929 2.929 7.678 2.929 10.607 0s2.929-7.678 0-10.607zm57.922 87.424c-2.929-2.929-7.678-2.929-10.607 0l-10.606 10.606c-2.929 2.929-2.929 7.678 0 10.606 2.929 2.929 7.677 2.929 10.606 0l10.607-10.607c2.929-2.928 2.929-7.677 0-10.605z" fill="#fff5f5"/></g></svg>